<svg fill="none" height="750" viewBox="0 0 750 750" width="750" xmlns="http://www.w3.org/2000/svg"><g clip-rule="evenodd" fill-rule="evenodd"><path d="m547.67 462.866c-10.907 4.265-23.525 10.666-24.695 22.319 14.817-11.399 33.119-18.202 51.784-19.247-12.895 16.246-29.177 29.791-47.498 39.513-16.454 8.731-37.285 18.043-38.696 36.616 17.67-21.042 44.839-33.781 72.316-33.908-17.579 25.747-45.767 44.01-76.45 49.531 1.053 7.912 35.073 24.858 44.982 28.119 7.057 30.317 10.114 69.633 17.171 99.95 1.736 7.461 3.265 16.033-1.303 22.182-4.532 6.099-13.091 7.149-20.671 7.687-29.873 2.124-70.747 4.248-100.621 6.371-3.576-16.204-7.153-32.408-10.73-48.613-50.39 4.679-266.417 54.183-306.062 28.213-153.0387-100.254 42.113-134.405 46.307-256.464.961-27.987-83.1849-76.909-81.849-105.507.8724-18.674 3.7632-36.915 13.0023-52.95 9.2392-16.034 23.8797-28.386 39.7917-37.834-21.907-5.631-38.5011-27.469-38.0571-50.084.4439-22.615 17.8821-43.785 39.9931-48.551-10.425-12.424-26.8404-18.118-38.8309-29.038-13.968-12.721-20.987-33.241-15.8991-51.4355 5.088-18.1945 23.0023-32.5096 41.878-31.703 15.504.6626 29.148 10.4688 39.971 21.5908 16.784 17.2489 29.267 38.6524 36.016 61.7547 4.498 15.398 20.984 23.231 34.907 31.2s28.381 21.85 24.458 37.404c-5.186-21.285 71.892 4.068 141.797 10.275 9.281.824 19.27 2.023 26.13 8.328 9.86 9.06 24.663 12.365 37.439 8.358 4.065 10.077 7.056 21.396 3.6 31.698-3.455 10.302-15.695 18.165-25.479 13.439 2.554 13.139 5.108 26.279 7.662 39.418 25.016.301 50.029.812 75.037 1.533 13.254.382 27.107.985 38.627 7.551 11.519 6.567 26.937-2.736 38.32-26.637-7.367 39 1.362 54.583 16.413 58.82.031-.295 1.201-.155 1.235-.449 4.481-38.54 30.633-72.759 67.029-86.296-3.219 7.416-26.247 22.065-42.237 40.772-15.621 18.273-23.097 42.736-23.871 47.129 24.802-6.503 33.07 11.974 75.148-4.293-19.227 23.117-56.28 28.809-81.56 12.529-11.926 13.301-11.259 28.029-19.708 43.77 14.352-17.837 33.409-2.023 18.291 9.538 8.024.77 16.7 1.828 22.52 7.405 5.821 5.577 5.966 17.315-1.542 20.251-25.355 9.915-50.711 19.83-76.066 29.745z" fill="#64fcd9"/><path d="m506.513 374.969c.918-1.745 1.915-3.575 3.604-4.591 1.689-1.017 4.28-.807 5.19.942.968 1.862-.472 4.106-2.163 5.348-1.691 1.243-3.77 2.119-4.868 3.907 5.937 3.912 11.874 7.824 17.811 11.736 4.65 3.065 9.911 7.441 8.96 12.928-.559 3.217-3.285 5.718-6.322 6.918-3.036 1.2-6.375 1.325-9.639 1.419-21.935.632-43.892.521-65.82-.333-1.521-.059-3.218-.201-4.232-1.337-.785-.881-.947-2.136-1.074-3.309-1.262-11.671-2.524-23.342-3.786-35.014-.047-.431-.091-.881.063-1.286.65-1.704 3.199-.654 4.624.483 10.094 8.057 26.232 7.111 35.315-2.071 2.195-2.219 5.931-1.932 8.75-.594 2.82 1.337 5.179 3.513 8.007 4.832-.301-1.636 1.141-3.361 2.804-3.354 1.663.006 3.091 1.743 2.776 3.376" fill="#fff"/><path d="m153.278 246.155s-2.451-29.35 3.717-38.785 29.661-12.275 29.661-12.275 64.391-.842 99.181.488c34.791 1.33 104.37 7.293 104.37 7.293s9.041 1.972 13.105 4.494c4.065 2.523 9.733 9.68 9.733 9.68s12.336 1.799 18.473 2.043c6.136.245 11.759-.838 11.759-.838s7.821 22.808 2.292 33.68c-5.529 10.871-24.093 9.185-24.093 9.185l6.572 40.686s-7.813 3.692-12.083 8.321c-4.269 4.63-5.984 11.268-5.984 11.268l12.69 123.74s3.733 6.432 11.752 8.875c8.019 2.442 26.086 2.65 26.086 2.65s-.644 12.477 0 17.847c.644 5.369 1.219 8.311 1.219 8.311l13.602 97.378s-13.221 2.405-26.303 5.579-39.046 10.275-39.046 10.275-9.153 4.173-10.339 10.911c-1.185 6.737 3.67 26.985 3.67 26.985l-145.758 11.11s-14.184.267-19.062-2.807c-4.879-3.074-6.216-13.121-6.216-13.121l-19.715-177.321s-31.505.771-40.706-4.482c-9.202-5.254-10.314-24.648-10.314-24.648s1.528-10.993 0-18.622c-.51-2.545-7.174-30.139-9.412-56.394-1.267-14.857 16.215-26.266 16.215-26.266z" fill="#fff"/><path d="m256.126 205.334c-1.134 1.597-.185 3.981 1.453 5.056s3.702 1.196 5.659 1.284c21.264.957 42.527 1.914 63.791 2.871 2.072.093 4.366.113 5.936-1.242s1.363-4.588-.686-4.914c-23.644-3.759-47.638-5.32-71.571-4.657-1.68.047-3.609.231-4.582 1.602" fill="#e7eaee"/><path d="m350.731 357.74-5.526-25.931s-.258 5.347-3.183 7.522c-2.926 2.175-8.71 1.32-8.71 1.32s-.916-18.107 3.155-23.621c4.072-5.514 8.083-.307 15.817-2.071 7.727-1.762 6.126-7.566 15.105-4.982 8.979 2.585 15.613 21.801 15.613 21.801s-7.04 2.359-10.036 1.754c-2.995-.605-2.265-4.238-2.265-4.238s-2.123-.904-1.582 5.467c.263 3.095 2.606 7.75 3.847 13.838.463 2.268 0 7.363 0 7.363s-7.989.815-14.893 2.292c-6.904 1.478-7.342-.514-7.342-.514z" fill="#e7eaee"/><path d="m154.555 293.239c-2.659-1.432-4.822-3.616-6.941-5.768-5.468-5.55-11.004-11.19-14.798-17.995-.361-.648-.717-1.392-.508-2.104.208-.712 1.295-1.116 1.702-.495 6.594 10.067 14.922 18.996 24.506 26.275-.862 1.158-2.689.771-3.961.087z" fill="#00160a"/><path d="m162.521 165.821c1.571-1.619 2.409-3.796 3.132-5.933 2.256-6.662 3.794-13.567 4.577-20.557.141-1.259.372-2.709 1.465-3.351 1.228 5.994-.294 12.171-1.807 18.099-1.33 5.211-2.803 10.683-6.575 14.517-.382.388-.869.783-1.406.694-.724-.121-1.014-1.083-.755-1.77.258-.686.858-1.173 1.369-1.699z" fill="#00160a"/><path d="m541.722 218.097c.748-.2 1.509.39 1.835 1.092s.35 1.5.495 2.26c.568 2.971 3.246 5.408 6.256 5.694.375.873-.455 1.746-1.111 2.433-1.494 1.563-2.437 3.642-2.629 5.796-.124 1.397-.418 3.342-1.821 3.323-1.127-.014-1.622-1.378-2.028-2.43-.992-2.569-3.23-4.624-5.874-5.394-.555-.161-.788-.871-.636-1.428.153-.558.576-.994.98-1.408 1.737-1.782 3.5-3.893 3.481-6.381-.01-1.346-.248-3.209 1.052-3.557z" fill="#ffb61d"/><path d="m594.38 451.901c-2.333 2.397-3.159 6.149-2.049 9.304-1.229.549-2.148-1.145-2.757-2.346-.912-1.804-2.638-3.175-4.6-3.658 2.842-1.793 4.611-5.167 4.469-8.525 1.143-.745 2.422.807 2.75 2.131.329 1.325.823 3.047 2.187 3.094z" fill="#e7eaee"/><path d="m574.472 456.396c1.352 2.146 3.276 3.93 5.519 5.116.806.426.075 1.613-.59 2.235-1.677 1.567-2.738 3.776-2.915 6.064-1.467-1.47-2.933-2.939-4.399-4.409-.586-.586-1.203-1.496-.699-2.154 1.538-2.005 2.603-4.371 3.084-6.852z" fill="#e7eaee"/><path d="m476.524 197.942c1.335-8.498 4.56-16.85 10.227-23.322s13.94-10.89 22.542-10.883 17.289 4.879 20.864 12.703c1.85 4.049 2.304 8.606 2.178 13.055-.239 8.462-2.512 16.859-6.573 24.287-3.663 6.697-8.928 12.721-15.763 16.119-6.836 3.397-15.355 3.854-22 .098-5.262-2.974-8.943-8.312-10.697-14.096s-1.715-11.991-.778-17.961m52.577-6.431c.155-5.269-.714-10.71-3.485-15.194-1.684-2.727-4.044-5.033-6.808-6.654-8.915-5.228-21.049-2.419-28.454 4.79-7.405 7.21-10.614 17.866-10.945 28.196-.176 5.51.416 11.16 2.759 16.15 2.342 4.99 6.629 9.258 11.968 10.63 6.987 1.794 14.36-1.584 19.838-6.277 9.14-7.83 14.773-19.611 15.127-31.641z" fill="#ffb61d"/><path d="m564.551 192.041c-1.422 1.86-2.91 4.302-1.818 6.374.39.741-.62 1.603-1.424 1.369-.805-.234-1.262-1.083-1.476-1.893s-.284-1.679-.713-2.398c-.43-.719-1.406-1.218-2.117-.775-1.011-.12-1.115-1.644-.527-2.476s1.554-1.404 1.915-2.357c.286-.754.133-1.6.268-2.395.136-.795.813-1.644 1.593-1.441-.026 1.397.136 2.847.845 4.052s2.066 2.106 3.454 1.94z" fill="#ffb61d"/><path d="m437.305 189.288c1.112-1.294 2.509-2.4 4.148-2.871 1.64-.471 3.541-.223 4.821.904 1.393 1.227 1.83 3.276 1.534 5.108-.297 1.831-1.221 3.496-2.193 5.077-1.261 2.051-2.631 4.035-4.102 5.942-.459.596-.963 1.21-1.667 1.475-.929.351-1.965.01-2.882-.373-3.22-1.347-6.213-3.235-8.815-5.562-2.382-2.131-4.579-5.255-3.614-8.302.615-1.941 2.493-3.346 4.507-3.645 2.015-.3 4.102.41 5.704 1.667.766.602 1.924 1.318 2.559.58m-10.174 1.127c-1.521 2.093.13 5.024 2.047 6.761 2.391 2.168 5.23 3.77 8.043 5.353.361.203.765.414 1.171.326.361-.078.629-.374.867-.656 1.906-2.258 3.612-4.683 5.094-7.239 1.14-1.966 1.977-4.854.141-6.193-1.454-1.058-3.572-.205-4.804 1.104-1.232 1.31-2.007 3.019-3.354 4.211-1.051-1.657-2.169-3.379-3.874-4.351-1.705-.973-4.177-.903-5.331.684z" fill="#ffb61d"/><path d="m415.521 132.103c3.487-2.719 7.364-4.936 11.475-6.564 2.52-.998 5.396-1.766 7.887-.698 3.991 1.713 4.769 7.444 2.669 11.246-2.1 3.801-6.083 6.106-9.875 8.224-7.436 4.153-14.872 8.307-22.307 12.46 1.464-2.923-.188-6.353-1.541-9.329-3.047-6.702-4.642-14.06-4.643-21.423-.001-2.325.173-4.721 1.193-6.811 1.021-2.09 3.057-3.823 5.382-3.878 3.72-.087 6.194 3.787 7.449 7.291 1.099 3.068 1.875 6.252 2.311 9.482zm15.759-5.328c-6.014 1.221-11.617 4.385-15.769 8.904-.409.445-1.204.249-1.578-.227-.373-.475-.445-1.112-.516-1.712-.468-3.975-1.508-7.882-3.076-11.564-.875-2.053-2.339-4.32-4.57-4.356-1.653-.027-3.092 1.297-3.702 2.834-.609 1.538-.558 3.249-.441 4.898.652 9.2 3.073 18.271 7.09 26.573 6.578-3.686 13.156-7.373 19.734-11.059 2.053-1.15 4.142-2.329 5.737-4.057 1.596-1.729 2.646-4.131 2.182-6.438-.463-2.306-2.785-4.265-5.091-3.796z" fill="#ffb61d"/><path d="m369.493 587.766c19.2-2.188 38.523-3.289 57.846-3.297 3.545-.002 6.629-2.756 8.069-5.995 1.44-3.238 1.555-6.892 1.557-10.437.007-13.17-1.232-26.305-2.469-39.417-.502-5.317-1.003-10.635-1.505-15.952-.305-3.227-.628-6.525-1.986-9.468-2.358-5.106-7.579-8.426-13.018-9.856s-11.156-1.234-16.776-1.028c-18.66.683-37.32 1.366-55.98 2.049 10.756-3.944 22.471-4.129 33.928-4.269 8.783-.108 17.566-.215 26.349-.322 8.977-.11 19.235.341 24.962 7.255 3.7 4.467 4.516 10.584 5.135 16.351 1.947 18.158 3.373 36.372 4.276 54.612.3 6.045.058 13.148-4.864 16.67-2.753 1.97-6.324 2.265-9.701 2.494-20.564 1.393-41.128 2.786-61.691 4.179-4.829.327-9.917.606-14.261-1.528-1.509-.741-3.059-2.418-2.249-3.89 6.685 3.64 14.815 2.711 22.378 1.849z" fill="#00160a"/><path d="m288.165 296.484c.385.576.473 1.294.55 1.982.18 1.602.36 3.205.54 4.808.214 1.901.258 4.201-1.319 5.286-.84.578-1.924.625-2.943.653-21.452.58-42.903 1.159-64.354 1.739-1.38.037-2.977-.023-3.823-1.114-.531-.684-.613-1.605-.662-2.47-.157-2.718-.2-5.441-.131-8.162.011-.415.035-.86.292-1.185.308-.39.851-.485 1.343-.552 22.165-3.003 44.628-3.795 66.949-2.363 1.318.085 2.824.281 3.558 1.378m-.881 10.426c-2.179-1.177.016-4.627-.776-6.973-.681-2.015-3.267-2.492-5.391-2.613-20.226-1.152-40.558-.433-60.653 2.143-.74.095-1.561.237-2.01.833-.444.589-.364 1.406-.263 2.136.157 1.13.313 2.26.469 3.391.124.89.312 1.889 1.06 2.388.543.362 1.242.358 1.893.342 21.89-.549 43.781-1.098 65.671-1.647z" fill="#00160a"/><path d="m328.518 334.461c.102-2.38.204-4.761.306-7.142.2-4.643.443-9.459 2.601-13.574 2.158-4.116 6.815-7.314 11.338-6.245 2.828.669 5.437 2.893 8.282 2.296 2.477-.52 3.996-2.969 6.089-4.393 4.989-3.394 11.942-.241 16.068 4.162 4.446 4.746 7.337 10.926 8.128 17.381.067.548.101 1.163-.252 1.588-.292.351-.77.473-1.216.575-1.717.394-3.434.787-5.152 1.18-1.462.335-2.979.671-4.448.367-1.47-.304-2.88-1.437-2.999-2.932-.438 8.358 5.821 16.342 4.077 24.528-.649-.354-1.297-.709-1.946-1.063 1.53-8.209-5.785-16.156-4.258-24.365.202-1.087.638-2.243 1.609-2.771.972-.527 2.508.072 2.47 1.177-.061 1.769 1.848 3.091 3.619 3.076 1.77-.015 3.38-.964 4.893-1.885.538-.327.391-1.138.166-1.727-1.673-4.391-3.874-8.581-6.539-12.452-1.801-2.616-3.972-5.202-6.965-6.264-2.993-1.063-6.947.021-8.049 3-1.289 3.487-6.163 3.722-9.742 2.717-3.579-1.006-7.596-2.575-10.789-.672-2.671 1.592-3.565 4.984-4.065 8.052-.858 5.264-1.254 10.603-1.182 15.936.145.814 1.182 1.076 2.009 1.055 4.353-.113 8.396-3.547 9.211-7.825 1.173 1.349 1.592 3.177 1.972 4.924 1.314 6.051 2.628 12.102 3.942 18.153.405 1.863-.068 4.726-1.943 4.387-.85-6.6-2.109-13.146-3.768-19.59-3.136.713-6.271 1.425-9.407 2.138-.962.219-2.038.421-2.88-.093-1.162-.71-1.238-2.338-1.18-3.699z" fill="#00160a"/><path d="m420.248 498.802c1.6 1.734-.886 4.935.579 6.783.761.96.219 2.482-.789 3.177-1.007.695-2.298.788-3.52.859-21.007 1.221-42.014 2.442-63.021 3.662-1.428.083-3.134.035-3.914-1.164-.341-.523-.424-1.168-.497-1.789-.192-1.614-.384-3.228-.576-4.843-.06-.506-.114-1.049.125-1.5.392-.744 1.368-.906 2.206-.98 22.078-1.948 44.181-3.596 66.304-4.941 1.099-.067 2.356-.073 3.103.736zm-2.411 2.727c-.068-.398-.158-.834-.477-1.083-.317-.248-.761-.231-1.163-.201-19.588 1.428-39.176 2.855-58.764 4.283-1.583.116-3.225.248-4.608 1.028s-2.425 2.405-2.01 3.937c.128.475.402.926.823 1.181.515.312 1.159.289 1.761.257 20.681-1.122 41.361-2.244 62.042-3.366 2.458-.133 2.812-3.609 2.396-6.036z" fill="#00160a"/><path d="m436.822 479.992c3.718 9.784 4.904 20.317 6.059 30.72 2.684 24.169 5.367 48.337 8.051 72.506-1.997.164-2.917-2.399-3.166-4.387-4.065-32.519-5.374-65.457-12.249-97.5.435-.446.87-.893 1.305-1.339z" fill="#00160a"/><path d="m316.883 311.638c-.579-.247-.567-1.15-.124-1.596.444-.446 1.116-.553 1.74-.633 4.671-.593 9.381-.882 14.089-.865-.25 2.009-2.844 2.597-4.866 2.69-3.398.157-6.796.314-10.194.471-.218.01-.445.019-.645-.067z" fill="#00160a"/><path d="m343.236 557.42c-.388-7.193-.776-14.387-1.164-21.58-1.044-19.362-2.121-38.922-7.511-57.547-.688-2.378-1.474-4.792-2.999-6.743-3.816-4.883-10.88-5.444-17.077-5.444-23.894.001-47.787 2.274-71.253 6.776-2.385.458-4.864.983-6.766 2.491-3.023 2.397-3.821 6.61-4.101 10.458-.513 7.025-.005 14.123 1.501 21.004-.862-.144-1.724-.288-2.587-.432-3.161-6.586-4.602-13.988-4.14-21.279.2-3.166.783-6.39 2.414-9.11 4.057-6.767 12.989-8.391 20.834-9.231 19.905-2.132 39.884-3.568 59.889-4.304 8.052-.296 17.151-.071 22.677 5.793 2.78 2.95 4.188 6.914 5.293 10.814 3.839 13.546 4.898 27.702 5.938 41.744 1.016 13.719 2.032 27.439 3.048 41.159.239 3.224.475 6.499-.178 9.666-2.126 10.319-13.115 16.597-23.577 17.845s-20.995-1.143-31.529-1.319c-14.167-.236-28.418 3.531-42.39 1.178-4.024-.678-8.303-2.104-10.515-5.533-1.535-2.379-1.812-5.328-2.047-8.149-1.657-19.899-3.314-39.798-4.971-59.698-.111-1.332.88-3.318 1.904-2.458 1.827 19.167 3.654 38.335 5.481 57.503.247 2.595.516 5.264 1.722 7.575 1.751 3.354 5.283 5.487 8.946 6.437 3.663.949 7.502.872 11.285.823 16.008-.209 32.023.189 48 1.194 5.343.336 10.744.738 16.022-.159 5.278-.896 10.515-3.248 13.791-7.482 4.666-6.031 4.471-14.378 4.06-21.992z" fill="#00160a"/><path d="m316.072 303.859c1.489-1.163.237-3.544.53-5.41.416-2.641 3.702-3.548 6.357-3.855 17.056-1.971 34.231-2.903 51.4-2.789 1.428.009 3.117.168 3.836 1.403.864 1.482.06 4.068 1.695 4.587.767.244 1.752-.207 2.333.35.962.921-.83 2.165-2.156 2.284-20.092 1.803-40.227 3.123-60.382 3.957-1.233.051-2.541.084-3.613-.527m60.015-8.321c-.469-1.18-2.039-1.353-3.309-1.333-16.187.246-32.365 1.046-48.498 2.398-1.891.159-4.123.553-4.912 2.279-.379.982.344 2.111 1.297 2.557.953.445 2.055.388 3.105.321 16.115-1.022 32.23-2.044 48.346-3.066.991-.063 2.025-.139 2.88-.645.855-.507 1.459-1.587 1.091-2.511z" fill="#00160a"/><path d="m397.809 532.013c2.485 1.975 1.422 6.301 3.584 8.625 1.005 1.081 2.511 1.503 3.927 1.917.911.267 2.038.936 1.748 1.839-.296.925-1.644.776-2.549.422-2.953-1.158-6.284-3.081-6.447-6.249-.119-2.312-.806-4.593-1.984-6.586.332-.562 1.21-.374 1.721.032z" fill="#00160a"/><path d="m409.562 564.771c-.809-10.424-1.619-20.849-2.428-31.274-.119-1.532-.255-3.121-1.013-4.457-.759-1.337-2.331-2.344-3.816-1.945-6.715 1.801-13.689 2.636-20.64 2.472-6.077-.144-12.296-1.032-18.143.632.108 2.896.217 5.791.326 8.686.032.846.08 1.743.561 2.439 1.348 1.951 4.696.464 5.456-1.783.761-2.246.074-4.703.204-7.072.023-.419.107-.896.464-1.118.759-.472 1.488.654 1.682 1.526.558 2.498 1.114 5.113.456 7.587s-2.952 4.715-5.491 4.388c-2.631-.339-3.707 3.256-3.771 5.908-.127 5.292-.254 10.583-.381 15.875-.04 1.666.559 3.967 2.215 3.779 4.273-.484 8.547-.969 12.821-1.453 1.033-.117 2.143-.22 3.052.285.908.505 1.389 1.881.644 2.606-5.019.44-10.039.88-15.059 1.32-1.466.128-2.987.25-4.37-.253-1.383-.502-2.588-1.818-2.462-3.284 1.235-14.396 1.511-28.873.827-43.306-.146-3.07 3.594-4.629 6.615-5.195 9.589-1.798 19.369-2.578 29.122-2.322 3.27.086 6.834.41 9.205 2.663 2.414 2.294 2.888 5.908 3.221 9.221 1.247 12.419 2.495 24.837 3.743 37.255.067.67.083 1.466-.453 1.874-.319.243-.749.269-1.15.286-4.162.173-8.324.346-12.487.519-2.205.092-4.578.139-6.414-1.086-1.26-.84-2.092-2.175-2.824-3.5-1.754-3.18-3.157-6.553-4.172-10.04-1.592 3.986-2.6 8.204-2.982 12.479-2.011.218-2.385-2.8-1.918-4.769.965-4.062 1.93-8.123 2.895-12.185.147-.618.382-1.336.988-1.526.892-.281 1.577.787 1.903 1.664 1.359 3.653 2.719 7.306 4.078 10.959 1.17 3.144 4.545 5.034 7.877 5.421 3.332.388 6.672-.451 9.922-1.283.643-.165 1.372-.402 1.622-1.017.124-.305.101-.647.075-.976zm-45.281-38.169c3.014.039 6.028.078 9.042.117 2.264.03 4.529.059 6.794.016 8.174-.154 16.331-1.25 24.256-3.26-1.768-1.815-4.604-1.917-7.137-1.872-9.065.162-18.124.69-27.147 1.58-2.414.239-5.415 1.025-5.808 3.419z" fill="#00160a"/><path d="m350.788 518.796c-.172-.943 1.05-1.458 1.997-1.604 10.936-1.695 22.017-2.444 33.082-2.237.158.003.322.007.469.068.519.217.494 1.035.082 1.418s-1.019.447-1.58.489c-10.536.79-21.226.384-31.548 2.638-.958.209-2.325.193-2.502-.772z" fill="#00160a"/><path d="m595.344 496.154c.604-1.424 1.27-2.928 2.552-3.794 1.081-.731 2.436-.892 3.734-1.033 3.85-.418 7.7-.836 11.55-1.254 1.904-.207 4.362-1.009 4.289-2.923-.233-6.181.245-13.3 5.155-17.061 4.492-3.441 11.218-2.497 15.826.785 4.609 3.283 7.529 8.396 10.047 13.463 1.115 2.244 4.169 2.653 6.638 2.22 2.468-.432 4.97-1.403 7.405-.812 3.749.91 5.644 5.005 6.932 8.642 6.466 18.249 10.855 37.275 18.897 54.887 3.008 6.587 2.056 14.807-2.378 20.532-.547-4.546.215-9.242 2.171-13.383.922-1.95-2.146-3.233-4.304-3.227-21.985.056-44.065.119-65.807 3.38-.664.1-1.37.222-1.865.676-.481.44-.669 1.108-.835 1.739-.674 2.561-1.348 5.121-2.022 7.682-.423 1.604-.158 4.095 1.493 3.928 21.518-2.179 43.152-3.218 64.78-3.112 2.275.011 5.38.914 5.085 3.169-23.04.272-46.165.55-68.956 3.942-3.629.54-6.135-3.954-5.724-7.6.412-3.646 2.503-6.916 3.092-10.538.508-3.121-.127-6.304-.811-9.392-1.087-4.908-2.302-9.788-3.642-14.633-1.308-4.729-2.736-9.423-4.164-14.117-2.159-7.099-4.319-14.199-6.478-21.299-2.97 4.349-4.293 9.794-3.65 15.02.448 3.639 1.797 7.095 2.808 10.62 1.445 5.038 2.203 10.243 2.958 15.43 1.486 10.216 2.973 20.432 4.459 30.649.219 1.503-.213 3.718-1.716 3.496-6.682-20.671-4.847-43.525-12.733-63.767 1.738-4.105 3.476-8.21 5.214-12.315zm49.767 3.75c2.177-1.211 3.305-4.038 2.558-6.415-.746-2.378-3.287-4.053-5.767-3.802-6.079.616-12.158 1.232-18.237 1.848-.562.057-1.19.15-1.527.602-.266.357-.271.839-.246 1.283.162 2.778 1.126 5.505 2.746 7.767 1.259 1.758 3 3.862 2.017 5.788-1.228 2.406-5.265 1.057-6.266-1.452s-.289-5.341-.475-8.036c-.186-2.696-2.123-5.798-4.788-5.35-4.369.736-8.738 1.471-13.108 2.207-.627.106-1.446.493-1.262 1.102 5.321 17.611 10.641 35.222 15.962 52.834.663 2.195 2.158 4.911 4.39 4.39 20.494-4.786 42.102-.26 62.911-3.405-6.234-19.546-12.683-39.022-19.348-58.426-.196-.572-.419-1.181-.908-1.538-.541-.396-1.269-.384-1.938-.356-3.122.133-6.243.265-9.364.397-1.235.052-2.919.641-2.648 1.847.848 3.781 1.696 7.563 2.545 11.344.146.65.289 1.347.046 1.968-.66 1.69-3.149 1.264-4.809.532-1.089-.479-2.235-1.005-2.908-1.987-.673-.981-.617-2.563.424-3.142zm-8.045-27.434c-2.394-1.756-5.542-3.023-8.304-1.935-.963.379-1.799 1.016-2.621 1.645-1.463 1.121-2.971 2.293-3.835 3.921-.803 1.515-.969 3.276-1.119 4.985-.131 1.493-.262 2.986-.394 4.479-.081.926-.114 1.99.557 2.633.644.617 1.655.572 2.543.488 6.358-.605 12.716-1.21 19.075-1.815.906-.086 2.013-.332 2.252-1.211.094-.346.018-.715-.067-1.064-1.172-4.818-4.089-9.193-8.087-12.126m-2.381 15.796c-.64.181.071 1.381.537.906.595-.244-.065-1.362-.566-.959z" fill="#ffb61d"/><g fill="#00160a"><path d="m433.097 345.331c-.111-.372.11-.761.371-1.049 1.281-1.41 3.426-1.515 5.331-1.52 11.553-.026 23.106-.053 34.66-.08.813-.002 1.684.014 2.348.484.663.469.923 1.577.285 2.082-.339.268-.807.285-1.24.29-13.421.149-26.843.298-40.265.447-.584.006-1.323-.093-1.49-.654z"/><path d="m437.379 357.258c-.697-.4-.6-1.522-.015-2.072.586-.55 1.439-.679 2.236-.775 4.782-.577 9.592-.894 14.398-1.21 2.648-.175 5.297-.349 7.945-.523l10.329-.681c1.093-.072 2.314-.103 3.138.62s.623 2.462-.472 2.53c-12.151.753-24.302 1.506-36.453 2.258-.377.024-.779.042-1.106-.147z"/><path d="m502.513 372.969c.918-1.745 1.915-3.575 3.604-4.591 1.689-1.017 4.28-.807 5.19.942.968 1.862-.472 4.106-2.163 5.348-1.691 1.243-3.77 2.119-4.868 3.907l17.811 11.736c4.65 3.065 9.911 7.441 8.96 12.928-.559 3.217-3.285 5.718-6.322 6.918-3.036 1.2-6.375 1.325-9.639 1.419-21.935.632-43.892.521-65.82-.333-1.521-.059-3.218-.201-4.232-1.337-.785-.881-.947-2.136-1.074-3.309-1.262-11.671-2.524-23.342-3.786-35.014-.047-.431-.091-.881.063-1.286.65-1.704 3.199-.654 4.624.483 10.094 8.057 26.232 7.111 35.315-2.071 2.195-2.219 5.931-1.932 8.75-.594 2.82 1.337 5.179 3.513 8.007 4.832-.301-1.636 1.141-3.361 2.804-3.354 1.663.006 3.091 1.743 2.776 3.376zm1.242 7.52c-.721-2.649-4.636-3.205-6.795-1.51s-2.859 4.648-3.046 7.387c-.07 1.021-1.75 1.123-2.325.276-.576-.847-.343-1.988-.023-2.96.843-2.568 2.142-4.985 3.816-7.105.83-1.05-.386-2.47-1.48-3.239-3.863-2.716-9.332-5.395-12.874-2.274-9.708 8.55-25.193 9.69-36.048 2.652.129 8.761.775 17.514 1.932 26.199.117.875.266 1.81.871 2.453.8.851 2.109.911 3.277.912l56.571.072c1.835.003 4.329-.653 4.186-2.482-.333-4.257 1.552-8.628 4.877-11.307-2.615-1.9-5.23-3.8-7.846-5.7-.797-.579-1.633-1.175-2.604-1.341-2.935-.503-4.895 2.86-5.932 5.651-1.591-2.843.262-6.979 3.443-7.684zm-49.284 29.07c19.637.154 39.275.121 58.911-.099 5.574-.062 12.083-.628 15.106-5.313-27.115 1.192-54.27 1.487-81.405.884-.337 3.257 4.114 4.502 7.388 4.528m67.203-17.504c-.585-.37-1.189-.748-1.871-.865-2.056-.353-3.678 1.7-4.571 3.586-.516 1.09-.965 2.212-1.343 3.358-.288.873-.537 1.801-.356 2.702s.92 1.753 1.839 1.764c3.339.038 6.679.002 10.016-.107.787-.025 1.643-.081 2.233-.604.694-.615.778-1.675.605-2.586-.629-3.296-3.718-5.452-6.552-7.248zm-11.796-21.317c-.037-1.017-1.394-1.533-2.333-1.141-.939.393-1.516 1.326-2.032 2.203-.623 1.061-1.245 2.121-1.868 3.181-.327.556-.505 1.503.125 1.642 1.658-1.378 3.316-2.756 4.973-4.134.555-.462 1.161-1.029 1.135-1.751zm-10.744 1.658c-.281 1.371.422 2.886 1.651 3.556.426-1.412.176-3.013-.66-4.228-.051-.344-.518-.542-.801-.342-.219.277-.297.66-.204 1z"/><path d="m431.62 331.96c-.499-2.412-.997-4.825-1.495-7.238-.194-.938-.372-1.978.12-2.8.67-1.12 2.205-1.269 3.51-1.292 32.052-.558 64.116-.436 96.163.366 2.186.055 3.981 1.943 4.646 4.026.665 2.084.447 4.333.221 6.508-.122 1.176-.316 2.486-1.253 3.206-.768.589-1.817.604-2.784.594-32.189-.352-64.377-.703-96.565-1.055-.53-.005-1.091-.02-1.539-.302-.656-.413-.868-1.254-1.024-2.013zm4.427-9.214c-2.369-.017-4.049 2.798-3.457 5.092s2.808 3.873 5.111 4.431 4.713.288 7.072.068c29.069-2.717 58.463 2.476 87.511-.455.152-1.767.297-3.594-.272-5.274-.57-1.68-2.053-3.185-3.826-3.198-30.713-.221-61.426-.442-92.139-.664z"/><path d="m238.348 401.842c-1.073 2.033-2.552 4.098-4.77 4.703-4.225 1.153-7.718-3.537-8.871-7.762-1.8-6.595-1.344-13.783 1.273-20.098 1.4-3.379.233-7.373-1.963-10.298-4.14-5.516-11.865-7.931-18.502-6.055-6.637 1.877-11.875 7.781-13.263 14.537-.218 1.058-.064 2.544 1.005 2.693 5.335.747 7.784 7.008 8.596 12.333.62 4.065.889 8.325-.49 12.2-1.379 3.874-4.754 7.278-8.855 7.589-3.68-2.478-6.451-6.276-7.687-10.537-2.299-7.925.687-16.326 3.77-23.981 1.882-4.671 3.901-9.454 7.475-13.002 7.64-7.584 21.906-6.683 28.531 1.801 2.549 3.263 4.012 7.317 6.836 10.345 2.129 2.283 4.944 3.881 6.886 6.324 4.219 5.307 3.193 13.212.029 19.208zm-51.19-14.652c-1.934 5.332-1.395 11.505 1.434 16.42.464.808 1.017 1.611 1.829 2.067.812.457 1.944.464 2.586-.211 1.924-2.023 2.164-5.081 2.158-7.872-.008-3.302-.211-6.602-.609-9.879-.163-1.342-.441-2.824-1.526-3.63s-3.121-.132-2.951 1.209c.496 3.9.992 7.801 1.487 11.701.113.887.212 1.847-.232 2.623-.445.776-1.673 1.138-2.236.443-1.459-2.977-1.899-6.442-1.23-9.688.241-1.168.406-2.765-.71-3.183m44.654 15.468c.493-.384.723-1.009.907-1.607 1.446-4.696 1.462-9.822.044-14.527-.539-1.788-2-3.881-3.769-3.281-1.023.346-1.541 1.465-1.866 2.494-1.48 4.677-1.283 9.865.546 14.417.351.872.784 1.753 1.527 2.33.742.576 1.87.752 2.611.174zm-34.719-16.877c1.289 6.532 1.015 13.367-.793 19.774-.166.59.503 1.05 1.063 1.299 2.712-6.578 3.055-14.103.954-20.9-.349-.249-.82-.316-1.224-.173zm37.624-1.764c-.401.639-.801 1.278-1.202 1.918 1.321-.224 1.925 1.578 1.995 2.916.164 3.091.327 6.183.491 9.274 1.23-.461 1.452-2.076 1.475-3.389.052-2.958.103-5.916.155-8.874-.443-.052-.886-.104-1.329-.156-.045-.837-.752-1.59-1.585-1.689z"/><path d="m379.719 389.627c-8.812-.42-17.663-.038-26.406 1.141-.773.104-1.639.192-2.261-.28s-.554-1.725.222-1.81c8.744-.961 17.525-1.579 26.317-1.852.956-.03 2.027-.013 2.708.658.682.672.376 2.189-.58 2.143z"/><path d="m175.02 354.44c2.501-.235 5.003-.47 7.504-.705 1.261-.118 2.521-.236 3.781-.355 8.016-.753 16.032-1.506 24.055-2.176.315-.026.644-.05.936.071.869.361.735 1.764-.021 2.322-.757.558-1.781.526-2.72.494-11.816-.393-23.592 3.158-35.353 1.957-.764-.078-1.764-.472-1.629-1.228 1.144-.163 2.296-.271 3.447-.38z"/><path d="m444.467 614.1c-.393-3.441-.675-7.185-2.989-9.763-1.775-1.977-.857-5.653 1.64-6.563s5.566 1.312 5.479 3.969c-.03.912-.362 1.782-.62 2.657-1.764 5.977-.126 12.407 2.031 18.253 2.185 5.92 5.53 12.222 11.533 14.168 6.945 2.251 14.629-2.731 17.708-9.351 3.078-6.619 2.609-14.305 1.534-21.526-.108-.724-.302-1.56-.966-1.867-2.702-1.248-3.112-5.63-.689-7.356 2.423-1.727 6.431.092 6.728 3.052.101 1.004-.155 2.005-.347 2.996-1.327 6.876.428 14.085-1.026 20.936-.911 4.289-3.094 8.3-6.201 11.394-3.296 3.28-7.746 5.542-12.395 5.621-6.26.106-12.114-3.776-15.653-8.941-3.538-5.166-5.056-11.458-5.767-17.679z"/><path d="m261.914 331.585c.174 2.357.34 4.785-.394 7.031-.735 2.247-2.601 4.293-4.956 4.496-12.139 1.043-24.28 2.087-36.442 2.807-16.585.981-33.198 1.36-49.807 1.738-.593.013-1.227.015-1.722-.311-.742-.49-.881-1.503-.949-2.389-.18-2.322-.359-4.644-.539-6.966-.055-.706-.096-1.469.285-2.066.557-.875 1.75-1.025 2.786-1.087 30.548-1.811 61.139-2.895 91.738-3.253zm-5.111 8.144c1.952-.13 2.347-3.202.916-4.535-1.431-1.334-3.604-1.363-5.56-1.314-25.14.624-50.29 1.249-75.38 2.956-1.807.123-3.687.273-5.249 1.19-1.562.916-2.69 2.844-2.093 4.554.848 2.429 4.125 2.696 6.692 2.525 26.891-1.792 53.783-3.584 80.674-5.376z"/><path d="m230.7 390.255c.024.639.049 1.278.073 1.916.05 1.329.099 2.667-.093 3.983-1.666-.176-2.183-2.321-2.28-3.994-.047-.796-.062-1.685.471-2.278s1.799-.423 1.829.373z"/><path d="m350.733 395.698c1.636-1.51 4.123-1.463 6.347-1.4 7.039.2 14.099-.344 21.024-1.62.817-.15 1.256 1.119.747 1.775-.508.656-1.428.794-2.253.878-7.805.793-15.643 1.264-23.487 1.409-.935.018-2.12-.144-2.378-1.042z"/><path d="m613.509 422.087c-.772 2.611-3.336 4.225-5.782 5.421-12.24 5.987-26.629 7.452-39.825 4.057-4.432-1.141-9.481-3.779-9.67-8.352-.14-3.361 2.543-6.178 5.384-7.98 4.359-2.763 9.44-4.159 14.507-5.143 9.773-1.899 20.369-2.291 29.216 2.276 3.706 1.913 7.352 5.721 6.17 9.721m-52.256.618c.008 3.693 4.128 5.855 7.7 6.792 12.405 3.254 25.974 1.85 37.45-3.875 1.842-.919 3.785-2.13 4.37-4.103.786-2.65-1.268-5.32-3.546-6.885-6.857-4.712-15.928-4.068-24.201-3.182-6.657.713-13.751 1.644-18.826 6.011-1.569 1.35-2.951 3.173-2.947 5.242z"/><path d="m253.372 205.774c-.417-2.374 1.22-4.733 3.33-5.899s4.597-1.391 7.003-1.532c21.454-1.263 42.874 2.183 64.336 3.315 2.762.146 5.674.299 7.998 1.799 2.324 1.501 3.688 4.869 2.08 7.12-.777 1.089-2.063 1.694-3.338 2.096-3.68 1.163-7.628 1.009-11.483.843-20.063-.863-40.127-1.725-60.19-2.588-3.984-.171-9.045-1.227-9.736-5.154m2.754-3.44c-1.134 1.598-.185 3.981 1.453 5.056s3.702 1.196 5.659 1.284c21.264.957 42.527 1.914 63.791 2.871 2.072.093 4.366.114 5.936-1.242 1.57-1.355 1.363-4.588-.686-4.914-23.644-3.759-47.638-5.32-71.571-4.657-1.68.047-3.609.231-4.582 1.602"/></g><path d="m488.635 185.171c3.264-6.8 8.556-13.81 16.077-14.39 5.01-.386 10.325.49 14.29 3.577 7.191 5.598 7.692 16.453 5.123 25.197-3.029 10.306-9.789 19.851-19.486 24.473-2.312 1.103-4.828 1.927-7.388 1.827-6.803-.267-11.757-6.951-13.221-13.6-2.008-9.112.568-18.672 4.605-27.084m8.461 38.194c5.028.685 9.766-2.518 13.314-6.147 6.649-6.802 11.113-15.708 12.584-25.106.423-2.708.599-5.518-.138-8.158-1.449-5.194-6.372-8.947-11.654-10.027-5.08-1.038-10.663.201-14.579 3.6-1.882 1.633-3.343 3.696-4.619 5.836-4.163 6.982-6.529 15.106-6.239 23.229.131 3.67.826 7.4 2.684 10.568 1.858 3.167 5.008 5.71 8.647 6.205z" fill="#ffb61d"/><path d="m323.726 473.788c.668-.035 1.386-.059 1.952.299.699.442.955 1.322 1.156 2.124.442 1.758.885 3.586.53 5.363-.355 1.776-1.757 3.483-3.567 3.562-4.617.202-9.234.403-13.852.605-1.81.079-3.932.338-4.832 1.911-.609 1.066-.428 2.39-.228 3.602.566 3.435 2.166 7.777 5.645 7.651 2.314-.084 4.377 1.673 5.373 3.763.996 2.091 1.145 4.47 1.277 6.782.125 2.176-.43 5.15-2.609 5.204-1.758.044-2.243 2.419-2.187 4.176.388 12.221.777 24.441 1.165 36.661.062 1.969-2.461 2.797-4.421 2.995-16.425 1.658-33.022 1.614-49.438-.13-.589-.063-1.341-.293-1.354-.885-.304-13.808-.608-27.616-.911-41.424-.018-.805-.413-1.918-1.189-1.706-2.447.669-4.907-1.601-5.413-4.086-.507-2.486.362-5.022 1.218-7.41.396-1.103.84-2.273 1.787-2.965 2.022-1.476 5.76-.425 6.665-2.759.15-.386.179-.809.164-1.223-.126-3.606-3.484-6.451-7.021-7.164s-7.183.225-10.627 1.299c-.79-2.979-.992-6.112-.592-9.167.094-.721.241-1.479.725-2.021.691-.774 1.842-.881 2.877-.936 25.902-1.374 51.805-2.747 77.707-4.121zm-69.061 27.976c-.498.578-.608 1.385-.698 2.143-.233 1.975-.467 3.951-.701 5.926-.049.416-.095.855.072 1.238.359.821 1.443.963 2.339.985 4.755.118 9.51.236 14.265.355.802.019 1.643.031 2.355-.338 1.146-.594 1.616-2.207.97-3.323.582-.06 1.164-.119 1.746-.179-.257 1.723 1.499 3.165 3.222 3.419 1.723.253 3.455-.273 5.192-.411 3.64-.287 7.276 1.141 10.903.712.381-.045.789-.124 1.056-.401.349-.361.342-.926.314-1.428-.138-2.408-.275-4.815-.413-7.223-.043-.758-.108-1.574-.595-2.156-.696-.832-1.942-.858-3.026-.816-5.235.203-10.47.405-15.705.608-.365.014-.77.045-1.023.309-.284.295-.264.76-.226 1.168.176 1.873.352 3.747.528 5.62-.695.068-1.376.271-1.994.595-.154-1.476-.309-2.952-.464-4.429-.14-1.346-.668-3.07-2.021-3.088-4.32-.058-8.641-.115-12.962-.173-1.123-.015-2.401.036-3.134.887zm24.893 14.524c-.072-.994-.502-2.31-1.494-2.203-6.16.662-12.396.624-18.549-.113.152 13.406.402 26.811.75 40.214.044 1.725 2.222 2.415 3.938 2.591 5.099.523 10.233.701 15.357.534.42-.014.874-.043 1.194-.315.421-.358.448-.986.442-1.539-.146-13.069-.693-26.133-1.638-39.169zm30.81-.739c-.168-.289-.552-.349-.885-.377-5.3-.449-10.627-.575-15.943-.377-.481.018-.997.05-1.378.345-.58.448-.616 1.294-.599 2.027.293 13.38.586 26.76.879 40.141 5.851.565 11.809.012 17.457-1.62.351-.101.724-.222.951-.508.245-.31.261-.736.267-1.13.11-8.609-.112-17.218-.334-25.824-.105-4.055-.21-8.11-.314-12.164-.005-.176-.012-.361-.101-.513zm-65.717-33.919c-1.016 1.597.076 3.853 1.746 4.745 1.67.893 3.672.806 5.562.697 11.437-.663 22.875-1.326 34.312-1.988 10.907-.632 21.815-1.265 32.705-2.151 1.595-.13 3.27-.293 4.588-1.201s2.084-2.826 1.2-4.16c-.887-1.338-2.794-1.4-4.397-1.317-23.765 1.226-47.53 2.452-71.295 3.677-1.642.085-3.539.311-4.421 1.698m45.714 75.366c-.803-13.062-.962-26.163-.476-39.24.028-.751.052-1.533-.248-2.222-.875-2.013-3.691-2.007-5.86-1.672-.992.154-2.258.628-2.184 1.629.93 12.509 1.861 25.038 1.652 37.58-.028 1.66.923 3.301 2.377 4.103 1.455.802 3.35.731 4.739-.178zm24.545-48.22c-.283-1.726-.578-3.49-1.42-5.023-.841-1.533-2.348-2.817-4.095-2.904-3.319-.166-6.637-.331-9.956-.496-.864-.043-2.058.217-2.016 1.081.126 2.626.253 5.253.379 7.879.056 1.146.269 2.53 1.332 2.965.342.14.722.151 1.092.159 4.326.099 8.653.198 12.98.297.826.019 1.518-.707 1.744-1.502.225-.794.093-1.641-.04-2.456zm-20.95-12.942c-.433-1.823-.884-3.69-1.921-5.251-1.036-1.562-2.796-2.782-4.665-2.644-2.881.211-5.762.423-8.643.635-1.795.132-3.827.39-4.879 1.85-1.273 1.766-.4 4.23-.744 6.38-.121.755.469 1.478 1.175 1.771.707.294 1.5.259 2.264.22 5.157-.265 10.314-.531 15.472-.796.757-.039 1.665-.177 1.967-.873.175-.402.076-.865-.026-1.292zm9.038-3.303c-.981-1.344-.957-3.335.057-4.655-1.808-1.123-4.34-.915-5.94.487-1.601 1.402-2.14 3.885-1.265 5.824.308.684.132 1.494.349 2.212.308 1.02 1.375 1.661 2.433 1.792s2.118-.147 3.148-.422c1.35-.361 2.994-1.083 2.981-2.481-.011-1.115-1.105-1.856-1.763-2.757zm-32.229 4.786c.599-1.959-.207-4.193-1.744-5.547-1.538-1.353-3.692-1.881-5.732-1.697-.82.073-1.675.276-2.268.847-.594.571-.806 1.598-.271 2.223.395.463 1.071.598 1.484 1.044.631.68.418 1.768.707 2.65.653 1.992 3.358 2.18 5.445 1.989.715-.065 1.504-.166 1.974-.708.198-.228.317-.513.405-.801zm.338-6.591c.484-.468.572-1.291.198-1.851-.834-.248-1.766.248-2.204.999.326.746 1.242 1.177 2.025.953m23.765-2.181c.122-.327.051-.718-.179-.981-.791-.25-1.712-.026-2.3.559.605.686 1.705.871 2.501.421z" fill="#00160a"/><path d="m613.736 433.121c-25.355 9.915-50.711 19.83-76.066 29.745-10.907 4.265-23.525 10.666-24.695 22.319 14.817-11.399 33.119-18.202 51.784-19.247-12.895 16.246-29.176 29.791-47.498 39.513-16.454 8.731-37.285 18.043-38.696 36.616 17.67-21.042 44.839-33.781 72.316-33.908-17.579 25.747-45.767 44.01-76.45 49.531 1.053 7.912 2.106 15.824 3.159 23.736 10.425-.37 20.914 1.122 30.823 4.383 7.057 30.317 14.114 60.633 21.171 90.95 1.736 7.461 3.265 16.033-1.303 22.182-4.532 6.099-13.091 7.149-20.671 7.687-29.873 2.124-59.747 4.248-89.621 6.371-3.576-16.204-7.153-32.408-10.73-48.613-50.39 4.679-100.781 9.358-151.171 14.037-10.612.986-21.835 1.869-31.437-2.754-34.829-16.768-77.061 15.688-113.848 3.814 32.321-.609 64.542-6.247 95.15-16.648 11.1-3.772 24.391-14.105 18.591-24.293-28.384 19.805-64.804 27.712-98.846 21.459 1.998-33.059.713-66.316-3.832-99.123 24.222-3.465 48.094-9.379 71.132-17.622 6.408-2.293 13.001-4.932 17.564-9.982 4.564-5.05 6.409-13.208 2.399-18.708-35.041 18.672-75.499 27.029-115.0697 23.768 2.0648 44.774 4.1297 89.549 6.1947 134.323-5.8493-44.742-8.9512-89.843-9.2827-134.965 20.3697-1.806 40.7387-3.612 61.1077-5.419-3.275-14.539-6.571-29.411-4.888-44.22 1.682-14.809 9.304-29.805 22.701-36.336-10.135-21.617-25.453-40.783-44.304-55.434-22.099-17.176-50.5106-30.126-60.6022-56.232-6.6725-17.261-3.3996-37.338 5.8395-53.373 9.2392-16.034 23.8794-28.386 39.7917-37.834-21.9074-5.631-38.5011-27.469-38.0571-50.084.4439-22.615 17.8819-43.785 39.9931-48.551-10.425-12.424-26.8404-18.118-38.8308-29.038-13.9681-12.721-20.9871-33.241-15.8991-51.4355s23.0022-32.5096 41.8779-31.703c15.504.6626 29.148 10.4688 39.971 21.5908 16.784 17.2489 29.267 38.6524 36.016 61.7547 4.498 15.398 20.984 23.231 34.907 31.2s28.381 21.85 24.458 37.404c-5.186-21.285-22.6-39.126-43.753-44.827-11.022-2.97-15.039-16.086-18.585-26.937-6.899-21.1156-18.677-40.6204-34.151-56.5577-11.63-11.9772-26.834-22.4286-43.5041-21.5288-17.1606.9263-32.2882 14.8855-36.2115 31.6173-3.9233 16.7317 2.6547 35.0652 15.1762 46.8362 12.7539 11.99 30.9994 17.863 41.2824 32.029-22.3012 4.532-39.9322 25.994-40.0493 48.75-.1172 22.757 17.292 44.399 39.5453 49.16-15.682 9.18-30.3566 20.841-40.032 36.222-9.6754 15.382-13.8229 34.904-8.0337 52.128 13.3902 39.84 69.2017 49.349 88.8977 86.478 5.334-17.52-2.485-35.942-6.504-53.811-4.019-17.868-1.748-40.814 14.912-48.423-4.869-23.467-9.738-46.933-14.607-70.4-3.628-17.486-5.448-39.64 9.595-49.266-10.599-3.287-20.006-10.289-26.197-19.498 6.686 10.233 19.562 16.039 31.658 14.275-15.285-33.134-32.233-65.502-50.759-96.9389 19.962 30.0989 37.628 61.7199 52.796 94.4969 70.154-1.898 140.416.263 210.321 6.47 9.281.824 19.27 2.023 26.13 8.328 9.86 9.06 24.663 12.365 37.439 8.358 4.065 10.077 7.056 21.396 3.6 31.698-3.455 10.302-15.695 18.165-25.479 13.439 2.554 13.139 5.108 26.279 7.662 39.418 25.016.301 50.029.812 75.037 1.533 13.254.382 27.107.985 38.627 7.551 11.519 6.567 19.648 21.112 14.517 33.339 3.273-10.104 6.545-20.209 9.818-30.313 11.535 18.31 17.201 40.257 15.969 61.862 3.996-6.08 7.992-12.16 11.988-18.24-14.197-22.344-16.004-52.042-4.622-75.943 11.164 18.488 17.452 39.89 18.063 61.478 4.163-38.907 31.729-74.376 68.403-88.017-6.363 14.661-12.725 29.323-19.088 43.984-5.448 12.553-12.368 26.476-25.458 30.464-8.635 2.63-21.138 2.471-22.704 11.361 24.801-6.504 51.199-6.826 76.151-.929-19.227 23.117-56.28 28.809-81.56 12.529-11.926 13.301-22.259 28.029-30.708 43.77 14.352-17.837 36.687-28.991 59.568-29.749-12.293 14.529-26.159 27.726-41.277 39.287 8.024.771 16.7 1.828 22.52 7.405 5.821 5.577 5.966 17.315-1.542 20.251zm-334.691-146.419c6.65-.077 14.098.16 18.74 4.922 3.542 3.633 4.491 8.992 5.263 14.006 3.531 22.932 6.836 45.898 9.916 68.894.773 5.768-4.063 11.091-9.588 12.92s-11.531 1.026-17.293.205c4.804-4.147 12.914-1.175 18.084-4.854 4.637-3.299 4.61-10.074 4.055-15.738-2.082-21.235-4.916-42.397-8.497-63.431-.633-3.718-1.408-7.674-4.042-10.373-3.507-3.596-9.112-3.835-14.134-3.841-20.617-.026-41.234-.051-61.851-.077-3.553-.004-7.292.038-10.377 1.801-8.877 5.074-5.604 18.475-1.192 27.699 12.502-2.534 25.276-3.723 38.03-3.537 11.299.164 25.389 3.833 27.295 14.971 4.186 24.471 8.371 48.941 12.557 73.411 2.195 12.831 3.405 28.419-6.849 36.438-5.123 4.007-11.923 4.962-18.376 5.778-15.866 2.006-31.733 4.012-47.599 6.018 6.608 57.861 13.216 115.723 19.825 173.584.737 6.454 2.086 13.873 7.761 17.034 3.357 1.87 7.429 1.717 11.266 1.508 50.555-2.757 101.061-6.408 151.487-10.951-2.017-4.596-2.057-10.02-.108-14.646 5.108 29.901 10.215 59.802 15.323 89.703 8.942-6.164 7.567-19.544 5.193-30.142-6.011-26.833-12.021-53.666-18.032-80.499-2.433 4.464-4.867 8.928-7.3 13.392-1.195-5.573 2.149-11.34 6.788-14.653 4.638-3.314 10.355-4.673 15.929-5.868 17.136-3.674 34.457-6.48 51.877-8.404-5.062-35.71-10.124-71.419-15.187-107.129-31.122 8.548-64.08 5.858-96.237 3.101-9.524-.816-21.628-4.022-22.537-13.538-2.283-23.922-4.566-47.844-6.849-71.766-.298-3.119-2.105-7.319-5.08-6.337-7.31 2.414-11.658-8.001-12.256-15.677-1.877-24.073-3.754-48.147-5.631-72.221-.246-3.157-.31-6.801 2.044-8.919 1.649-1.483 4.023-1.755 6.231-1.956 15.752-1.441 31.504-2.881 47.257-4.321 8.995-.823 19.212-1.248 25.758 4.977 4.62 4.393 6.17 11.055 7.145 17.355 1.797 11.612 2.392 23.409 1.773 35.142-1.249-11.469-2.497-22.938-3.745-34.407-.562-5.161-1.248-10.633-4.508-14.672-5.564-6.895-15.916-6.779-24.746-6.053-15.774 1.298-31.547 2.596-47.321 3.894-2.124.175-4.426.426-5.97 1.895-2.009 1.912-1.952 5.076-1.751 7.841 1.69 23.266 3.38 46.531 5.07 69.797.319 4.391.753 9.085 3.529 12.502 2.776 3.418 8.799 4.491 11.393.933-3.553-7.812 1.362-17.378 8.638-21.931s16.205-5.354 24.761-6.037c14.755-1.177 29.51-2.354 44.266-3.531-1.011-30.541-4.305-61.005-9.844-91.056-5.104-1.427-9.751-4.444-13.132-8.524-2.531 6.518-10.068 10.661-16.927 9.303s-12.249-8.06-12.105-15.051c-.814 8.045-7.822 15.023-15.871 15.801-8.048.779-16.264-4.727-18.604-12.467-3.854 4.298-8.855 8.002-14.605 8.526-5.749.523-12.109-3.108-13.044-8.805-7.551 9.796-25.1 8.802-31.497-1.784-6.579 10.858-25.31 10.591-31.577-.45-2.814 10.208-18.524 11.024-26.064 3.591-7.541-7.433-9.009-18.883-10.058-29.419-12.447 11.993-14.693 31.259-12.33 48.381 2.362 17.123 8.518 33.617 10.012 50.837 3.41.857 7.15.316 10.177-1.473-3.27-9.881-5.42-23.156 3.456-28.591 3.56-2.18 7.966-2.291 12.14-2.34 19.892-.23 39.783-.46 59.675-.691zm197.052 166.286c26.093-1.296 53.01 2.105 77.807-6.118 3.837-1.273 7.768-2.95 10.24-6.149-6.334-2.911-13.061-7.93-12.906-14.9.102-4.577 3.274-8.533 6.847-11.395 3.751-3.005 8.118-5.236 12.751-6.515.375-1.147-1.641-1.395-2.64-.718-.998.678-2.514 1.516-3.178.509-.179-.271-.215-.608-.247-.93-2.489-25.328-6.177-50.537-11.048-75.517-1.464-7.51-3.64-15.876-10.26-19.714-3.574-2.073-7.858-2.421-11.98-2.706-31.028-2.147-62.114-3.461-93.213-3.943-7.349-.113-15.571.16-20.724 5.402-3.908 3.977-5.028 9.883-5.442 15.444-1.281 17.218 2.406 34.358 4.805 51.456 2.873 20.483 3.907 41.172 5.803 61.768.252 2.741.558 5.597 2.04 7.916 2.542 3.975 7.702 5.222 12.375 5.877 6.903.968 13.884 1.377 20.853 1.223 6.047-.134 12.076-.69 18.117-.99zm-214.143-132.86c-8.833-3.883-18.95-2.843-28.535-1.73-14.498 1.683-28.996 3.366-43.494 5.049-6.968.809-13.943 1.619-20.837 2.919-1.662.314-3.329.659-4.897 1.292-6.145 2.484-9.808 9.109-10.66 15.682-.853 6.572.608 13.198 2.009 19.676 4.352 20.132 8.212 40.452 9.259 61.023.207 4.072.311 8.198 1.431 12.119 1.119 3.921 3.404 7.693 6.978 9.657 2.748 1.511 5.978 1.824 9.108 2.03 28.688 1.885 57.361-2.741 85.739-7.352 4.038-.656 8.286-1.405 11.433-4.017 4.861-4.035 5.588-11.134 5.553-17.452-.065-11.667-1.477-23.326-4.201-34.672-3.185-13.269-8.187-26.322-8.319-39.967-.059-6.019.731-12.504-2.409-17.639-1.855-3.034-4.902-5.187-8.158-6.618zm-136.514 252.674c3.856 27.71 5.152 55.775 3.865 83.722-.068 1.474 1.722 2.224 3.171 2.501 18.551 3.546 37.657-.998 55.659-6.714 10.233-3.249 20.474-6.952 29.325-13.031 4.048-2.781 8.145-6.971 7.388-11.824-4.864-31.178-7.539-62.696-7.999-94.248-16.38 12.799-37.166 18.23-57.311 23.355-9.549 2.429-19.226 4.874-29.078 4.792-2.382-.02-4.359 2.072-5.025 4.359-.665 2.287-.323 4.729.005 7.088m376.506 14.007c-30.683-2.988-61.982.521-91.241 10.228 1.756 13.365 4.157 26.644 7.19 39.778 1.214 5.259 2.53 10.494 3.846 15.729 2.562 10.195 5.124 20.389 7.686 30.584.357 1.419.804 2.97 2.027 3.772 1.091.717 2.504.635 3.806.527 30.296-2.527 60.576-5.264 90.835-8.212-6.615-29.487-13.23-58.974-19.845-88.46-.254-1.133-.56-2.354-1.461-3.086-.781-.633-1.843-.762-2.843-.86m-45.229-129.44c-6.677.34-13.453.672-19.972-.809s-12.863-5.034-16.211-10.821c-1.921 2.212-5.741 2.378-7.847.341s-2.068-5.86.078-7.855c-8.481.077-16.962.153-25.444.23 3.876 2.283 3.558 9.015-.449 11.06s-9.553-1.409-9.646-5.907c-.041-2.018 1.197-4.285 3.208-4.466-.834-1.429-2.999-.583-4.646-.739-2.482-.235-3.838-2.939-4.709-5.275-3.531-9.474-6.744-19.063-9.956-28.649 2.25 3.681 7.315 5.337 11.305 3.696 1.409-.58 1.452-2.607.852-4.008-1.048-2.446-3.436-4.332-6.089-4.54s-5.414 1.413-6.311 3.918c-1.33-.994-.763-3.293.632-4.194 1.395-.9 3.182-.821 4.839-.721 15.643.945 31.344.93 46.985-.045.712-.044 1.497-.124 1.982-.646.549-.591.496-1.503.409-2.305-.598-5.502-1.196-11.004-1.794-16.506-.066-.61-.16-1.277-.616-1.688-.502-.453-1.259-.432-1.933-.384-19.607 1.397-39.163 3.508-58.616 6.326-2.071.3-3.997-1.438-4.65-3.426-.654-1.987-.352-4.147-.043-6.217.108-.726.246-1.512.784-2.012.495-.46 1.213-.568 1.884-.654 20.239-2.583 40.61-4.133 61.007-4.642-.495 2.015-3.123 2.449-5.198 2.486-18.93.336-37.839 1.854-56.581 4.541-1.496 2.559.555 6.006 3.317 7.082 2.763 1.076 5.857.501 8.771-.047 16.057-3.022 32.348-4.803 48.68-5.322 2.331-.074 2.61-3.429 2.12-5.71-1.138-5.297-2.276-10.594-3.414-15.89-11.31 2.141-22.863 2.996-34.364 2.542-6.806-.269-13.575.92-20.283 2.105-5.7 1.007-11.775 2.2-15.894 6.267-4.815 4.753-5.678 12.186-5.386 18.946.48 11.09 3.294 21.938 4.683 32.951 1.698 13.457 1.261 27.097 2.564 40.597.351 3.637.852 7.342 2.483 10.612 1.63 3.27 4.595 6.077 8.209 6.616 29.697 4.428 59.977 4.931 89.806 1.492 2.755-.318 5.535-.676 8.136-1.638 4.105-1.519 7.625-4.564 9.72-8.407.84-1.543 1.468-3.307 1.161-5.037-.306-1.73-1.809-3.337-3.563-3.248zm-237.42 75.866c3.107 34.193 6.215 68.386 9.323 102.579.559 6.146 1.097 12.495-.824 18.359-1.921 5.865-6.974 11.166-13.142 11.368 3.621 5.296 9.87 8.325 16.19 9.434 6.319 1.109 12.799.522 19.187-.068 52.642-4.864 105.283-9.728 157.924-14.591-1.13-6.579-2.26-13.157-3.39-19.735-.253-1.476-.978-3.349-2.472-3.237-36.194 2.697-72.388 5.394-108.582 8.091-14.862 1.108-29.798 2.216-44.652 1.001-7.517-.615-16.8-3.602-17.541-11.107-5.934-60.047-12.803-120.002-20.605-179.835-.12-.92-.269-1.904-.899-2.587-.84-.911-2.23-.98-3.469-.986-7.401-.038-14.802-.076-22.203-.114 2.161 12.262 4.967 24.41 8.402 36.378.635 2.212 1.691 4.794 3.957 5.192 8.138 1.429 14.561 8.123 17.909 15.677s4.139 15.953 4.887 24.181zm-28.436-212.837c-6.353-32.22-11.727-64.632-16.115-97.178-.248-1.841-.488-3.749.054-5.526 1.116-3.662 5.121-5.58 8.846-6.464 7.282-1.727 14.887-1.151 22.351-.601 68.24 5.032 136.703 7.045 205.121 6.033-2.721-5.52-8.194-9.284-14.014-11.28-5.821-1.996-12.041-2.44-18.18-2.864-60.226-4.162-120.543-8.062-180.909-7.335-7.385.089-14.857.259-21.988 2.182s-13.993 5.796-18.107 11.93c-6.483 9.666-4.915 22.435-2.908 33.899 4.699 26.848 10.416 53.518 17.134 79.932 6.239-.909 12.477-1.818 18.715-2.728zm146.934-62.973c3.261.034 6.65-.149 9.536-1.668 5.082-2.675 7.338-8.839 7.674-14.572.336-5.734-.796-11.48-.432-17.212.084-1.306.813-3.038 2.081-2.71.918 6.599 1.835 13.197 2.753 19.795.507 3.643 1.034 7.354 2.63 10.668 1.596 3.313 4.465 6.226 8.077 6.92 2.075.398 4.241.041 6.218-.702 4.734-1.78 8.701-6.31 8.521-11.364-.248-6.978-.497-13.957-.745-20.935-.098-2.76-1.125-6.439-3.883-6.294-18.393.963-36.84.878-55.222-.255-1.34-.083-1.694 1.816-1.552 3.152.736 6.921 1.471 13.843 2.207 20.764.556 5.226 1.742 11.368 6.537 13.519 1.737.779 3.695.874 5.6.894zm94.331 434.32c-.881.617-1.463 1.567-1.999 2.5-2.79 4.856-5.031 10.026-6.669 15.381 32.195-2.249 64.364-4.863 96.5-7.84 1.208-.112 2.518-.27 3.385-1.119.562-.551.851-1.316 1.123-2.055 1.203-3.268 2.405-6.535 3.608-9.803.586-1.59 1.106-3.568-.039-4.818-.951-1.038-2.568-1.005-3.971-.893-29.382 2.354-58.749 4.889-88.099 7.604-1.336.124-2.74.272-3.839 1.043zm56.753-198.355c-.87-10.158-2.644-21.558-10.933-27.492-3.235 8.907-6.5 17.949-7.24 27.397s1.348 19.517 7.685 26.563c.891.99 1.881 1.951 2.353 3.196s.233 2.889-.923 3.55c-8.615-7.496-12.18-19.517-11.979-30.934.202-11.416 3.701-22.486 7.168-33.365.762-2.39-1.417-4.905-3.863-5.462s-4.972.26-7.347 1.068c-.462.157-.666.685-.812 1.151-1.643 5.233-3.3 10.782-2.028 16.117 5.481 22.989 4.773 47.116 10.352 70.081.206.848.429 1.714.923 2.433 3.7-7.235 7.4-14.469 11.1-21.704 1.739-3.399 3.487-6.823 4.573-10.484 2.11-7.118 1.605-14.718.971-22.115zm130.889-166.866c.715.59 1.674.776 2.595.879 10.463 1.17 20.337-5.952 26.131-14.743 5.794-8.79 8.531-19.176 12.33-28.995 3.565-9.216 8.124-18.046 13.574-26.289-10.911 10.238-24.343 17.407-35.732 27.111s-21.081 23.314-20.278 38.254c.075 1.381.313 2.903 1.38 3.783m-419.052-99.007c1.487 6.52.872 13.765 4.484 19.393 3.502 5.455 10.889 8.055 17.036 5.996s10.477-8.585 9.985-15.049c-.112-1.469-.443-2.911-.774-4.347-1.295-5.625-2.59-11.25-3.885-16.875-.129-.56-.273-1.149-.67-1.564-.569-.595-1.48-.664-2.303-.696-7.912-.302-15.824-.605-23.737-.908-.761-.029-1.596-.035-2.188.444-.749.608-.792 1.723-.694 2.682.379 3.74 1.91 7.258 2.746 10.924m214.181 6.081c.189 9.006 6.056 16.837 12.244 23.383.604.639 1.224 1.281 1.979 1.733 1.221.73 2.707.902 4.124.781 4.78-.411 8.869-4.026 10.887-8.379 2.017-4.353 2.245-9.332 1.81-14.11-.434-4.778-1.492-9.484-1.918-14.262-.086-.959-.438-2.21-1.4-2.206-8.459.032-16.918.064-25.377.097-1.082.004-2.229.026-3.143.605s-1.424 1.932-.746 2.775c2.071 2.577 1.47 6.278 1.54 9.583zm128.636 278.575c-23.176-.408-44.422 13.331-60.632 29.899-2.732 2.793-5.4 5.723-7.219 9.181-.322.612-.576 1.464-.048 1.911.28.238.682.252 1.05.251 13.483-.048 26.45-5.743 37.405-13.604s20.185-17.837 29.444-27.638zm-286.772-260.902c3.311-1.906 5.442-5.701 5.345-9.52-.049-1.937-.621-3.816-1.081-5.698-1.185-4.843-1.645-9.862-1.362-14.839.061-1.06.151-2.149-.167-3.162-.319-1.013-1.164-1.944-2.225-2.002-8.757-.478-17.515-.957-26.273-1.435-.315-.017-.659-.026-.913.16-.395.29-.372.876-.299 1.359 1.077 7.127 4.526 13.84 4.747 21.045.082 2.65-.273 5.367.47 7.913.95 3.261 3.666 5.835 6.817 7.103 3.15 1.269 6.685 1.341 10.028.738 1.71-.308 3.407-.796 4.913-1.662zm350.435 97.569c6.343 1.789 11.951 5.53 18.104 7.89 13.641 5.232 29.878 3.048 41.651-5.603 5.056-3.715 10.111-7.43 15.166-11.145-6.162 1.459-12.537 2.017-18.858 1.653-10.564-.609-20.996-3.773-31.547-2.98-8.976.674-17.705 4.3-24.516 10.185m-181.123-48.81c-1.247-6.906-2.493-13.812-3.74-20.718-1.671-9.256-3.342-18.511-5.013-27.767-.118-.657-.262-1.361-.748-1.818-.487-.457-1.436-.458-1.701.154-1.669 3.852-5.086 6.905-9.1 8.132-2.436.744-2.644 4.067-2.361 6.598 1.997 17.858 4.362 35.674 7.091 53.435.794-7.264 7.019-13.572 14.272-14.463 1.411-.173 1.553-2.154 1.3-3.553m-133.255-56.171c-.775-7.445-1.752-14.869-2.931-22.261-.243-1.524-.892-3.424-2.434-3.492-7.971-.35-15.943-.699-23.914-1.049-.284-.012-.584-.022-.836.112-.643.341-.538 1.279-.348 1.982 1.838 6.826 2.814 13.883 2.896 20.951.02 1.739 0 3.545.728 5.125 1.072 2.325 3.511 3.659 5.829 4.745 4.039 1.892 8.456 3.556 12.864 2.869s8.608-4.545 8.146-8.982zm3.447.042c.804 3.895 2.278 8.426 6.094 9.546 3.221.945 6.703 1.206 9.934.295 3.23-.911 6.176-3.08 7.622-6.109 1.029-2.156 1.261-4.597 1.395-6.982.367-6.534.115-13.104-.753-19.591-.047-.347-.098-.704-.274-1.008-.465-.805-1.561-.918-2.491-.938-8.117-.177-16.234-.354-24.351-.531-.663-.014-1.589.675-1.028 1.029.908 8.15 2.194 16.258 3.852 24.289zm272.745 80.614c-6.341 14.336-8.208 30.612-5.279 46.011 1.17 6.152 3.471 12.68 8.796 15.975 1.567.97 4.179 1.256 4.759-.493 6.736-20.323 3.593-43.675-8.276-61.493zm-410.993 179.989c2.69 1.846 5.722 3.191 8.895 3.947 4.011.956 8.175.967 12.296 1.066 9.631.232 19.249.97 28.802 2.21 1.332.172 2.434-1.27 2.399-2.613-.035-1.344-.853-2.53-1.7-3.574-5.095-6.276-12.535-10.602-20.51-11.925-5.65-.937-11.426-.412-17.151-.576-5.724-.165-11.699-1.134-16.264-4.592-.242 3.288-.261 6.593-.058 9.884.082 1.332.217 2.713.896 3.862.569.963 1.473 1.678 2.395 2.311m231.692-255.42c.898 1.63 2.341 2.887 3.819 4.019 1.601 1.227 3.331 2.376 5.298 2.826 4.842 1.109 9.794-2.479 11.835-7.008 2.041-4.53 1.834-9.722 1.362-14.667-.358-3.739-.844-7.466-1.459-11.172-.102-.617-.221-1.263-.609-1.755-.682-.862-1.929-.962-3.028-.991-5.903-.157-11.807-.314-17.711-.471-1.307-.034-3.163.591-2.775 1.839 1.737 5.59 2.495 11.483 2.228 17.33-.156 3.413-.609 7.058 1.04 10.05m208.929 103.785c6.268-10.115 8.144-22.851 5.059-34.343-2.727-10.161-9.066-19.163-11.076-29.49-4.684 14.214-9.401 29.515-5.164 43.868 2.172 7.356 6.559 13.844 11.181 19.965zm-103.838 159.136c18.641-4.802 35.849-15.038 48.965-29.129 3.924-4.216 7.941-8.345 12.048-12.384-10.06 1.379-19.881 4.49-28.899 9.155-13.759 7.117-25.832 18.199-32.115 32.358m113.577-123.737c6.856-6.443 13.712-12.887 20.569-19.331-23.187 2.956-44.841 16.354-57.834 35.784 3.349 2.58 8.154 1.061 12.06-.555 5.434-2.247 10.914-4.519 15.751-7.861 3.406-2.354 6.437-5.201 9.454-8.037zm-450.951 140.828c.057.595.128 1.225.488 1.702.79 1.045 2.399.788 3.655.421 14.388-4.204 28.575-9.1 42.493-14.664 1.004-.401 2.174-1.036 2.194-2.116-10.677-.741-21.355-1.481-32.033-2.222-2.612-.181-5.234-.364-7.794-.91-3.852-.822-7.524-2.473-10.695-4.808.232 7.551.962 15.077 1.692 22.597m337.308-72.247c-.862.622-1.21 1.72-1.506 2.74-1.017 3.503-2.038 7.219-1.094 10.742.481 1.795 1.446 3.416 2.4 5.011 2.639 4.412 5.279 8.823 7.918 13.235.246.41.512.841.936 1.064 1.26.661 2.504-.893 3.089-2.191 3.799-8.425 7.683-17.334 6.822-26.535-.133-1.415-.517-3.021-1.781-3.669-.581-.298-1.255-.336-1.907-.369-3.913-.194-7.826-.388-11.738-.583-1.083-.053-2.261-.081-3.139.555zm59.804-31.191c-.1 5.93 5.073 10.888 10.747 12.614s11.763.983 17.66.35c10.368-1.113 21.334-2.031 29.858-8.039 1.891-1.333 3.679-2.978 4.523-5.132 1.318-3.361-.007-7.329-2.484-9.955-2.478-2.626-5.912-4.127-9.35-5.228-12.286-3.933-25.926-3.479-37.923 1.26-6.329 2.5-12.916 7.326-13.031 14.13m-398.089 60.573c1.117 1.042 3.381 1.308 3.816-.156 1.492-5.016 4.847-9.317 8.798-12.749 3.952-3.432 8.507-6.082 13.033-8.711 1.221-.709 1.144-2.468.908-3.86-.457-2.696-.914-5.392-1.371-8.088-.116-.683-.344-1.497-1.013-1.68-.547-.149-1.087.22-1.534.569-3.247 2.536-6.493 5.071-9.74 7.606-6.505 5.08-13.476 10.908-14.887 19.04-.491 2.833-.112 6.068 1.99 8.029m25.325-18.148c-7.291 4.553-15.009 9.594-18.322 17.526-.207.494-.397 1.013-.381 1.548.032 1.055.883 1.945 1.858 2.35.974.406 2.06.424 3.116.436 6.242.074 12.484.147 18.725.221.304.003.633-.001.873-.188.378-.295.34-.869.265-1.343-.996-6.292-1.992-12.584-2.987-18.877-.142-.895-.431-1.965-1.304-2.209-.636-.178-1.283.186-1.843.536zm310.106-10.848c-4.596-1.185-9.553-.927-14 .73.861 2.826 2.387 5.448 4.42 7.591 6.852 7.224 8.878 17.712 9.656 27.638.415 5.301.561 10.624.438 15.941 3.01-4.643 6.019-9.286 9.029-13.929.299-.461.608-.95.64-1.499.033-.55-.216-1.073-.469-1.562-2.97-5.735-7.334-10.68-10.09-16.521-2.755-5.841-3.6-13.299.376-18.389zm-307.897-243.032c-2.535.403-5.426 1.047-6.63 3.313-.832 1.567-.586 3.463-.319 5.217 1.102 7.224 2.203 14.449 3.305 21.673 5.638-10.138 10.917-20.47 16.194-30.799-.977-1.105-2.708-.965-4.164-.734-2.795.444-5.591.887-8.386 1.33zm346.999 245.293c.781 1.035 2.818-.111 2.339-1.316 7.529 2.162 15.737.623 22.849-2.661 7.112-3.285 13.321-8.206 19.432-13.107-2.566-.359-5.133-.717-7.699-1.076-.524-.073-1.203-.063-1.403.426-1.382 3.383-4.357 5.917-7.642 7.517-3.286 1.6-6.901 2.375-10.475 3.137-2.48.528-4.961 1.057-7.441 1.585-3.842.818-8.174 1.997-9.96 5.495m-136.215-52.386c.482-.122 1-.267 1.308-.658.479-.605.239-1.476.114-2.238s.067-1.776.828-1.908c.693.138 1.013.96 1.03 1.667s-.139 1.444.117 2.103c.569 1.468 2.595 1.526 4.156 1.327.924-.118 1.848-.236 2.772-.353.289-.037.598-.083.814-.28.683-.626-.268-1.648-.48-2.55-.163-.698.163-1.452-.051-2.135-.364-1.164-1.912-1.343-3.132-1.302-9.325.309-18.65.619-27.976.928.16 1.765.643 3.5 1.418 5.093.166.344.363.698.694.888.337.193.748.18 1.135.162 2.318-.107 4.636-.215 6.954-.323.198-.009.405-.021.57-.13.423-.28.276-.925.082-1.393-.335-.807-.67-1.613-1.004-2.419-.292-.702.978-1.117 1.513-.578.534.54.554 1.386.806 2.102.523 1.487 2.104 2.394 3.668 2.585 1.565.191 3.136-.2 4.664-.588m135.433 49.366c.508-.541-.613-1.106-1.349-1.016-4.2.515-8.399 1.03-12.598 1.545-.561.069-1.303.377-1.169.926 1.379 5.65.862 11.747-1.451 17.083-.44 1.017-.729 2.569.325 2.91 4.379-7.86 9.863-15.103 16.242-21.448zm-143.078-45.104c-.132-.457-.28-.936-.627-1.259-.395-.368-.965-.461-1.501-.52-2.751-.301-5.555-.112-8.242.555.841 2.726 1.681 5.451 2.521 8.177.16.516.374 1.096.875 1.298.257.104.544.086.82.067 2.716-.191 5.433-.381 8.149-.572-.59-2.601-1.255-5.184-1.995-7.746zm-17.686 9.53c.302.165.671.115 1.01.059 2.46-.401 4.919-.801 7.378-1.202-.887-2.844-1.775-5.688-2.662-8.532-.13-.417-.292-.875-.677-1.083-.304-.164-.673-.129-1.017-.089-2.192.255-4.385.51-6.578.765-.412.048-.9.151-1.053.537-.104.262-.006.556.092.82.966 2.607 1.932 5.214 2.898 7.821.129.348.282.726.609.904zm27.631-11.361c-.52-.452-1.29-.421-1.976-.364-2.166.178-4.332.356-6.498.534.648 2.775 1.463 5.512 2.44 8.189.128.351.273.721.571.946.372.281.882.265 1.348.237 1.478-.089 2.957-.178 4.435-.267.681-.041 1.509-.187 1.738-.829.109-.309.038-.65-.033-.97-.45-2.003-.9-4.006-1.349-6.008-.121-.535-.262-1.108-.676-1.468zm-12.921 19.939c-.214.034-.442.074-.598.225-.304.293-.165.797-.005 1.188.569 1.392 1.138 2.785 1.707 4.177.211.517.449 1.066.92 1.365.436.276.984.282 1.499.279 1.966-.012 3.931-.024 5.896-.035.288-.002.6-.012.822-.196.402-.332.252-.97.067-1.457-.756-1.993-1.512-3.986-2.268-5.979-.243-.64-1.133-.649-1.809-.543-2.077.325-4.154.651-6.231.976m16.535-20.333c-.413.001-.877.024-1.156.33-.336.368-.229.944-.102 1.426.559 2.112 1.118 4.225 1.676 6.337.099.371.213.768.511 1.011.396.323.968.262 1.473.185 1.863-.284 3.726-.569 5.589-.853-.2-2.163-.543-4.311-1.027-6.428-.151-.662-.36-1.384-.933-1.748-.429-.272-.969-.279-1.477-.277-1.518.006-3.036.011-4.554.017zm3.792 27.283c-.603-2.192-1.207-4.385-1.811-6.578-.23-.837-.557-1.786-1.367-2.102-.399-.155-.843-.121-1.269-.084-1.988.173-3.977.346-5.965.519.524 1.964 1.145 3.902 1.859 5.805.36.958.905 2.044 1.915 2.207 2.192.355 4.428.433 6.638.233zm3.461-.152c1.802.147 3.78.247 5.237-.824-.632-2.456-1.263-4.912-1.895-7.368-.142-.553-.332-1.169-.839-1.432-.372-.194-.819-.141-1.234-.083-1.786.249-3.571.497-5.357.746.425 2.6 1.145 5.151 2.143 7.589.153.375.326.763.646 1.009.362.279.845.326 1.299.363zm160.588-34.964c1.376-2.825 2.753-5.65 4.129-8.475.145-.297.293-.618.241-.944-.052-.317-.283-.571-.504-.805-1.959-2.071-3.918-4.143-5.878-6.215-.814 1.112-.72 2.623-.59 3.996.426 4.503.853 9.007 1.279 13.511.6.133 1.054-.516 1.323-1.068zm-158.608 7.506c-.257-.018-.55-.023-.73.162-.201.208-.157.543-.098.826.388 1.87.775 3.74 1.163 5.61.144.693.314 1.434.837 1.911 1.692 1.544 4.952-1.111 6.525.554.277-2.656.078-5.36-.584-7.946-.047-.182-.102-.374-.241-.499-.161-.145-.395-.167-.611-.182-2.087-.145-4.174-.29-6.261-.436zm-38.932 13.869c-.226.031-.461.065-.647.197-.411.292-.395.898-.336 1.399.157 1.338.331 2.722 1.03 3.872.7 1.151 2.082 2.003 3.383 1.655 1.863-.5 3.727-1 5.591-1.5-.081-1.781-.442-3.549-1.065-5.22-.155-.417-.351-.856-.734-1.082-.398-.234-.895-.179-1.353-.117-1.956.265-3.913.531-5.869.796zm43.468-15.629c.561-.085 1.159-.187 1.576-.572 1.241-1.147-.178-3.478.828-4.835.393-.53-.569-1.005-1.228-.977-2.944.124-5.888.249-8.832.373.114 1.218.326 2.427.632 3.611.342 1.32 1.629 2.223 2.961 2.516 1.331.292 2.715.089 4.063-.116zm-23.794 15.857c-.379-1.821-2.817-2.247-4.646-1.906-1.828.341-3.871 1.001-5.425-.021.099 1.922.548 3.827 1.319 5.591.162.37.358.757.71.956.397.224.888.153 1.338.075 1.802-.311 3.605-.622 5.408-.934.893-.154 2.071-.861 1.601-1.637-.375-.618-.158-1.417-.305-2.124m-11.136 7.476c-1.473.249-2.946.499-4.419.748-.797.135-1.78.455-1.865 1.259-.215 2.034 1.811 3.673 3.815 4.078s4.084.009 6.119.21c-.084-1.728-.446-3.443-1.067-5.058-.148-.384-.324-.781-.65-1.032-.529-.408-1.275-.317-1.933-.205zm38.815-3.945c-1.954-.207-3.941-.103-5.864.306 1.063 2.53 1.817 5.189 2.242 7.9.195 1.243 1.969 1.267 3.188.957.455-.116.951-.26 1.211-.651.223-.337.213-.772.194-1.176-.105-2.232-.209-4.465-.314-6.697-.006-.141-.016-.29-.097-.406-.119-.171-.352-.211-.56-.233m-31.915 20.001c1.843-1.84.898-5.553-1.6-6.288-2.498-.736-5.303 1.874-4.75 4.419.571 2.63 4.444 3.77 6.35 1.869m14.486-21.564c1.172-1.53-.583-3.789-2.482-4.122s-3.823.395-5.751.367c-.71-.011-.74 1.058-.509 1.729.299.869.597 1.738.896 2.607.122.356.343.782.718.759 1.375-.086 2.749-.172 4.124-.258 1.097-.069 2.335-.209 3.004-1.082zm18.999 14.774c-.142-.384-.352-.759-.683-1.001-.297-.216-.668-.308-1.033-.352-2.885-.348-5.685 2.53-5.259 5.404 1.228 1.46 3.54 1.863 5.189.905s2.445-3.166 1.786-4.956m-17.808-17.377c-.063 1.264 1.049 2.343 2.267 2.684 1.219.341 2.516.121 3.762-.101.638-.114 1.353-.278 1.687-.834.712-1.184-.702-3.355.603-3.809-.876-.121-1.751-.241-2.627-.361-1.157-.159-2.353-.316-3.475.005-1.122.32-2.158 1.25-2.217 2.416m10.469 1.618c1.327 1.153 3.548.994 4.781-.259 1.233-1.254 1.393-3.378.464-4.871-2.323.431-4.645.862-6.968 1.292.293 1.398.645 2.9 1.723 3.838m179.453-22.198c-1.809.67-3.617 1.34-5.426 2.01-.898.333-1.809.672-2.587 1.231 2.958 1.154 6.689-.354 8.013-3.241m-168.091-143.529c-.047-.799-.892-1.452-1.677-1.296.05.813.861 1.496 1.671 1.409z" fill="#00160a"/></g></svg>